<?xml version="1.0" encoding="utf-8"?>
<!-- Generator: Adobe Illustrator 23.0.3, SVG Export Plug-In . SVG Version: 6.00 Build 0)  -->
<svg version="1.1" id="Capa_1" xmlns="http://www.w3.org/2000/svg" xmlns:xlink="http://www.w3.org/1999/xlink" x="0px" y="0px"
	 viewBox="0 0 347.6 304" style="enable-background:new 0 0 347.6 304;" xml:space="preserve">
<style type="text/css">
	.st0{fill:#FAB702;}
	.st1{fill:#FFFFFF;}
	.st2{font-family:'OpenSans-Bold';}
	.st3{font-size:60px;}
</style>
<title>Recurso 1</title>
<g>
	<path class="st0" d="M39.7,142.2h28.6c3,0.1,5.5-2.2,5.6-5.1s-2.2-5.5-5.1-5.6c-0.2,0-0.3,0-0.5,0H39.7c-3-0.1-5.5,2.2-5.6,5.1
		s2.2,5.5,5.1,5.6C39.3,142.2,39.5,142.2,39.7,142.2"/>
	<path class="st0" d="M73.6,153.9c0-3-2.4-5.4-5.4-5.4l0,0H39.7c-3-0.1-5.5,2.2-5.6,5.1s2.2,5.5,5.1,5.6c0.2,0,0.3,0,0.5,0h28.6
		C71.2,159.3,73.6,156.9,73.6,153.9C73.6,154,73.6,153.9,73.6,153.9"/>
	<path class="st0" d="M325.5,171.5L272.9,12.1V12c-2.6-8.9-12-13.9-20.9-11.3c-0.5,0.1-0.9,0.3-1.3,0.5c-0.2,0-95.6,40.3-95.7,40.3
		c-4.6,1.9-8.3,5.5-10.4,10l-0.1,0.2l-19.8,45.5h-10.8c-3,0-5.4,2.4-5.4,5.4l0,0v11.8H28.2c-6.1,0-11.1,5-11.1,11.1v40
		c0,6.1,5,11.1,11.1,11.1H40v12.1H22.5C10.1,188.6,0,198.7,0,211.1s10.1,22.5,22.5,22.5h148.6c12.4,0,22.5-10.1,22.5-22.5
		s-10.1-22.5-22.5-22.5h-17.5v-12.1h17.5c3,0,5.4-2.4,5.4-5.4c0-0.4-0.1-0.9-0.2-1.3l-12-47.9l14-48.3l68.9-35.4L301,173.1
		l-29.4,32.7h-9c-3,0.1-5.3,2.6-5.1,5.6c0.1,2.8,2.3,5,5.1,5.1h62.8c3,0,5.4-2.4,5.4-5.3c0,0,0,0,0,0v-27.3
		C330.8,179.1,328.9,174.6,325.5,171.5 M22.5,222.9c-6.5,0-11.8-5.3-11.8-11.8c0-6.5,5.3-11.8,11.8-11.8s11.8,5.3,11.8,11.8l0,0
		C34.3,217.6,29,222.9,22.5,222.9 M171.1,199.3c6.5,0,11.8,5.3,11.8,11.8s-5.3,11.8-11.8,11.8c-6.5,0-11.8-5.3-11.8-11.8
		C159.3,204.6,164.6,199.3,171.1,199.3 M119.3,107.9H145c2.8,0,5.2,1.9,5.9,4.6l7.6,30.4h-39.2V107.9z M113.9,176.5h28.9v12.1H50.7
		v-12.1L113.9,176.5z M28.2,165.7c-0.2,0-0.4-0.2-0.4-0.4l0,0v-40c0-0.2,0.2-0.4,0.4-0.3h80.4v40.7L28.2,165.7z M151.9,222.9H41.7
		c4.5-7.2,4.5-16.4,0-23.6h110.3C147.5,206.5,147.5,215.7,151.9,222.9 M119.3,165.7v-12.2h41.9l3,12.1L119.3,165.7L119.3,165.7z
		 M158.4,103.8c-3.2-4.2-8.1-6.7-13.4-6.6h-8.6l10.9-25c3.7,4.5,9.3,7.2,15.2,7.2c1,0,2.1-0.1,3.1-0.2L158.4,103.8z M162.5,68.6
		c-4.9,0-8.9-4-8.9-8.9s4-8.9,8.9-8.9s8.9,4,8.9,8.9c0,0,0,0,0,0C171.4,64.6,167.4,68.6,162.5,68.6 M182.2,59.6c0-5.8-2.6-11.3-7-15
		L240,17.3c0.1,2.1,0.5,4.2,1.3,6.1v0.1l1.9,4.8L182.2,59.6z M250.7,16.8c0-3.4,2.7-6.1,6.1-6.1c3.4,0,6.1,2.7,6.1,6.1
		s-2.7,6.1-6.1,6.1l0,0C253.5,22.9,250.8,20.1,250.7,16.8 M257,33.6c3.8,0,7.6-1.4,10.5-3.8L312.7,167c-0.8,0.1-1.6,0.2-2.4,0.4
		L257,33.6z M320,205.7h-34l23.5-26.1c2.3-2.5,6.1-2.6,8.6-0.4c1.2,1.1,2,2.7,2,4.4V205.7z"/>
	<path class="st0" d="M56.8,216.4h80c3-0.1,5.3-2.6,5.1-5.6c-0.1-2.8-2.3-5-5.1-5.1h-80c-3-0.1-5.5,2.2-5.6,5.1s2.2,5.5,5.1,5.6
		C56.5,216.5,56.6,216.5,56.8,216.4"/>
	<path class="st0" d="M342.3,233.5H156.8c-2.9,0.1-5.3-2.1-5.5-5s2.1-5.3,5-5.5c0.2,0,0.3,0,0.5,0h185.5c2.9-0.1,5.3,2.1,5.5,5
		c0.1,2.9-2.1,5.3-5,5.5C342.6,233.5,342.5,233.5,342.3,233.5"/>
	<text transform="matrix(1 0 0 1 2.19 286.45)" class="st1 st2 st3">BuildPower</text>
</g>
</svg>
